<svg width="31" height="45" viewBox="0 0 31 45" fill="none" xmlns="http://www.w3.org/2000/svg">
<path d="M18.8308 40.1982L18.3944 40.0015L16.2879 40.4553L14.1212 39.9864L12.4209 40.2133L6.62798 40.1377L7.13955 37.3241L5.74023 34.9794L4.11522 34.3743L3.39296 32.7709L2.4751 32.2717L2.52024 31.2884L3.42304 28.7622L5.10825 25.3284L6.13146 25.2982L8.25304 23.2107L9.59216 23.1653L11.5934 24.6175L14.0309 23.4225L14.362 21.94L15.1594 20.503L15.686 18.7029L17.5819 17.2507L18.2891 14.7547L19.0264 13.953L19.5229 12.1075L20.4408 9.83851L23.3899 7.0854L23.5705 5.9055L23.9466 5.25506L22.5323 3.84825L22.6376 2.71373L23.6307 2.50195L25.0751 4.78613L25.3309 7.14592L25.2256 9.50571L27.1967 12.7429L25.2105 12.7126L24.2024 12.9698L22.5924 12.6067L21.8251 14.2858L23.9466 16.3582L25.4964 16.9633L26.008 18.4306L27.1516 20.8963L26.5948 21.8493L24.8344 25.4646L23.9767 26.0999L23.7209 28.8681L24.0821 30.3657L23.7962 31.4246L25.4964 33.2852L25.7973 34.5558L27.1214 36.3862L28.7465 37.5358L28.912 39.1544L29.2882 40.1982L29.0474 42.1193L26.2036 41.2722L23.3297 40.3343L18.8308 40.1982Z" fill="#DADADA" stroke="#333333" stroke-width="3"/>
</svg>
